<svg xmlns="http://www.w3.org/2000/svg" width="40" height="40" fill="none"><path fill="#fff" d="M25.403 9.688H14.597a4.916 4.916 0 0 0-4.91 4.909v10.806a4.916 4.916 0 0 0 4.91 4.91h10.806a4.916 4.916 0 0 0 4.91-4.91V14.597a4.916 4.916 0 0 0-4.91-4.91M20 26.422A6.43 6.43 0 0 1 13.578 20 6.43 6.43 0 0 1 20 13.578 6.43 6.43 0 0 1 26.422 20 6.43 6.43 0 0 1 20 26.422m6.597-11.531a1.5 1.5 0 1 1 .001-3.002 1.5 1.5 0 0 1-.001 3.002M20 15.766A4.24 4.24 0 0 0 15.766 20 4.24 4.24 0 0 0 20 24.234 4.24 4.24 0 0 0 24.234 20 4.24 4.24 0 0 0 20 15.766M20 0C8.955 0 0 8.955 0 20s8.955 20 20 20 20-8.955 20-20S31.045 0 20 0m12.5 25.403c0 3.913-3.184 7.097-7.097 7.097H14.597c-3.913 0-7.097-3.184-7.097-7.097V14.597c0-3.913 3.184-7.097 7.097-7.097h10.806c3.913 0 7.097 3.184 7.097 7.097z"/></svg>