<svg xmlns="http://www.w3.org/2000/svg" width="24" height="24" fill="none" viewBox="0 0 24 25"><circle cx="12" cy="12.035" r="11.675" stroke="#fff" stroke-width=".651"/><path fill="#fff" d="M13.25 9.292v5.416c0 .194 0 .29.016.371.066.33.324.59.655.655.08.016.177.016.37.016.194 0 .291 0 .372-.016a.83.83 0 0 0 .654-.655c.016-.08.016-.175.016-.366V9.287c0-.19 0-.287-.016-.366a.83.83 0 0 0-.655-.655c-.08-.016-.177-.016-.37-.016-.194 0-.291 0-.371.016a.83.83 0 0 0-.655.655c-.016.08-.016.177-.016.37M8.667 9.292v5.416c0 .194 0 .29.016.371.065.33.324.59.654.655.08.016.178.016.371.016.194 0 .29 0 .371-.016a.83.83 0 0 0 .655-.655c.016-.08.016-.175.016-.366V9.287c0-.19 0-.287-.016-.366a.83.83 0 0 0-.655-.655c-.08-.016-.177-.016-.37-.016-.194 0-.291 0-.372.016a.83.83 0 0 0-.654.655c-.016.08-.016.177-.016.37"/></svg>